<?xml version="1.0" standalone="no"?>
<!DOCTYPE svg PUBLIC "-//W3C//DTD SVG 20010904//EN"
 "http://www.w3.org/TR/2001/REC-SVG-20010904/DTD/svg10.dtd">
<svg version="1.0" xmlns="http://www.w3.org/2000/svg"
 width="214.000000pt" height="214.000000pt" viewBox="0 0 214.000000 214.000000"
 preserveAspectRatio="xMidYMid meet">
<metadata>
Created by potrace 1.14, written by Peter Selinger 2001-2017
</metadata>
<g transform="translate(0.000000,214.000000) scale(0.100000,-0.100000)"
fill="#000000" stroke="none">
<path d="M323 1965 c-103 -82 -105 -191 -3 -293 76 -76 370 -254 474 -287 15
-4 4 -13 -49 -41 -66 -33 -136 -89 -156 -126 -19 -36 6 -64 101 -111 116 -59
239 -146 302 -217 45 -51 138 -215 138 -245 0 -7 -6 -15 -13 -18 -18 -7 -95
-2 -103 6 -4 3 3 33 16 67 l22 60 -36 45 c-21 25 -41 45 -46 45 -13 0 -98
-174 -106 -216 -9 -48 13 -69 95 -88 56 -13 175 -15 221 -4 69 18 100 40 100
72 0 30 -60 163 -98 218 -18 26 -32 51 -32 56 0 16 99 101 170 147 36 24 102
61 147 83 92 47 105 66 76 113 -21 32 -118 109 -137 108 -6 0 -58 -12 -114
-28 l-104 -27 95 -37 c52 -21 103 -44 113 -53 18 -14 17 -14 -17 -12 -51 3
-160 -63 -267 -163 l-42 -40 -58 51 c-31 28 -91 74 -132 101 -61 40 -81 49
-108 45 -18 -2 -34 0 -37 4 -9 15 136 67 369 135 264 76 337 104 467 181 231
137 328 233 329 327 0 40 -34 100 -77 136 -51 42 -58 39 -28 -13 61 -104 23
-185 -130 -281 -143 -90 -320 -161 -513 -206 l-82 -19 -103 24 c-191 46 -358
115 -502 208 -82 53 -119 90 -138 138 -18 46 -14 82 18 136 29 50 24 55 -22
19z"/>
<path d="M375 1838 c34 -111 272 -225 597 -286 88 -17 98 -17 188 -1 170 30
303 71 428 130 68 33 167 120 177 157 6 20 -1 17 -50 -22 -121 -99 -278 -152
-369 -124 -92 27 -206 16 -242 -23 -21 -23 -47 -24 -64 -3 -38 45 -120 52
-263 24 -48 -9 -67 -8 -120 6 -84 23 -165 65 -232 120 -48 39 -56 42 -50 22z"/>
<path d="M600 1797 c-16 -4 -30 -12 -30 -17 0 -6 1 -10 3 -10 1 0 27 -9 57
-21 51 -19 139 -27 159 -15 17 11 86 19 139 18 37 -1 68 -9 98 -26 l44 -25 43
24 c57 32 111 36 215 15 90 -17 111 -16 200 17 47 18 53 28 20 39 -31 10 -909
11 -948 1z"/>
<path d="M152 1565 c-119 -121 -144 -161 -144 -231 0 -73 3 -77 294 -415 25
-30 133 -155 238 -279 106 -124 208 -243 227 -265 19 -22 52 -60 72 -84 100
-122 163 -153 274 -137 70 11 112 47 262 223 77 91 155 182 173 203 436 507
556 651 569 680 20 45 20 106 1 151 -9 20 -67 89 -129 153 l-113 117 -19 -36
-18 -37 105 -108 c58 -60 106 -115 107 -122 0 -7 2 -23 5 -36 6 -36 -15 -68
-157 -233 -72 -85 -152 -179 -177 -209 -26 -30 -76 -88 -112 -130 -36 -41 -90
-105 -120 -140 -30 -36 -57 -67 -60 -70 -3 -3 -57 -66 -120 -140 -138 -162
-129 -152 -162 -174 -39 -25 -119 -23 -163 4 -19 12 -35 25 -35 28 0 4 -15 23
-33 42 -18 19 -84 96 -147 170 -63 74 -117 137 -120 140 -3 3 -30 34 -60 70
-30 36 -57 67 -60 70 -3 3 -84 97 -180 210 -96 113 -177 207 -180 210 -33 30
-81 104 -82 127 -3 65 3 75 108 183 l105 108 -18 36 -19 37 -112 -116z"/>
<path d="M275 1494 c-131 -138 -134 -174 -27 -301 131 -155 157 -186 167 -197
6 -6 93 -108 194 -226 306 -360 351 -410 384 -426 38 -20 117 -20 156 1 16 8
100 97 186 197 86 101 167 194 179 208 11 14 73 86 136 160 63 74 127 149 142
165 218 246 221 265 71 422 l-78 81 -73 -44 c-40 -24 -94 -56 -120 -70 -26
-14 -65 -36 -87 -50 -22 -13 -46 -27 -53 -31 -15 -6 2 -24 84 -86 47 -35 64
-64 64 -105 0 -45 -26 -70 -123 -118 -87 -43 -229 -137 -261 -173 -13 -15 -11
-22 17 -66 44 -71 96 -203 91 -232 -13 -71 -89 -107 -233 -112 -162 -5 -273
44 -273 121 0 40 40 141 86 219 l34 57 -43 35 c-61 51 -159 113 -242 153 -83
40 -113 72 -113 121 0 37 18 59 113 138 l48 40 -38 20 c-34 17 -223 129 -285
168 -22 14 -26 12 -103 -69z"/>
<path d="M1100 1270 c-14 -5 -72 -23 -130 -40 -104 -32 -105 -32 -80 -49 14
-9 60 -44 102 -78 l78 -62 47 41 c26 22 71 56 100 76 29 19 53 38 53 42 0 4
-27 18 -61 30 -33 13 -63 29 -66 37 -6 15 -8 15 -43 3z"/>
</g>
</svg>
